<?xml version="1.0" encoding="UTF-8"?>
<!-- This file is generated by npm run build:icons -->
<svg xmlns="http://www.w3.org/2000/svg" xmlns:xlink="http://www.w3.org/1999/xlink" width="0" height="0">
<defs>
<symbol viewBox="0 0 24 24" fill="none" stroke="currentColor" stroke-width="2" stroke-linecap="round" stroke-linejoin="round" id="at-sign">
  <circle cx="12" cy="12" r="4" ></circle>
  <path d="M16 8v5a3 3 0 0 0 6 0v-1a10 10 0 1 0-4 8" ></path>
</symbol>
<symbol viewBox="0 0 24 24" fill="none" stroke="currentColor" stroke-width="2" stroke-linecap="round" stroke-linejoin="round" id="contact">
  <path d="M17 18a2 2 0 0 0-2-2H9a2 2 0 0 0-2 2" ></path>
  <rect width="18" height="18" x="3" y="4" rx="2" ></rect>
  <circle cx="12" cy="10" r="2" ></circle>
  <line x1="8" x2="8" y1="2" y2="4" ></line>
  <line x1="16" x2="16" y1="2" y2="4" ></line>
</symbol>
<symbol viewBox="0 0 24 24" fill="none" stroke="currentColor" stroke-width="2" stroke-linecap="round" stroke-linejoin="round" id="facebook">
  <path d="M18 2h-3a5 5 0 0 0-5 5v3H7v4h3v8h4v-8h3l1-4h-4V7a1 1 0 0 1 1-1h3z" ></path>
</symbol>
<symbol viewBox="0 0 24 24" fill="none" stroke="currentColor" stroke-width="2" stroke-linecap="round" stroke-linejoin="round" id="home">
  <path d="m3 9 9-7 9 7v11a2 2 0 0 1-2 2H5a2 2 0 0 1-2-2z" ></path>
  <polyline points="9 22 9 12 15 12 15 22" ></polyline>
</symbol>
<symbol viewBox="0 0 24 24" fill="none" stroke="currentColor" stroke-width="2" stroke-linecap="round" stroke-linejoin="round" id="instagram">
  <rect width="20" height="20" x="2" y="2" rx="5" ry="5" ></rect>
  <path d="M16 11.37A4 4 0 1 1 12.63 8 4 4 0 0 1 16 11.37z" ></path>
  <line x1="17.5" x2="17.51" y1="6.5" y2="6.5" ></line>
</symbol>
<symbol viewBox="0 0 24 24" fill="none" stroke="currentColor" stroke-width="2" stroke-linecap="round" stroke-linejoin="round" id="log-in">
  <path d="M15 3h4a2 2 0 0 1 2 2v14a2 2 0 0 1-2 2h-4" ></path>
  <polyline points="10 17 15 12 10 7" ></polyline>
  <line x1="15" x2="3" y1="12" y2="12" ></line>
</symbol>
<symbol viewBox="0 0 24 24" fill="none" stroke="currentColor" stroke-width="2" stroke-linecap="round" stroke-linejoin="round" id="log-out">
  <path d="M9 21H5a2 2 0 0 1-2-2V5a2 2 0 0 1 2-2h4" ></path>
  <polyline points="16 17 21 12 16 7" ></polyline>
  <line x1="21" x2="9" y1="12" y2="12" ></line>
</symbol>
<symbol viewBox="0 0 24 24" fill="none" stroke="currentColor" stroke-width="2" stroke-linecap="round" stroke-linejoin="round" id="twitter">
  <path d="M22 4s-.7 2.1-2 3.4c1.6 10-9.4 17.3-18 11.6 2.2.1 4.4-.6 6-2C3 15.5.5 9.6 3 5c2.2 2.6 5.6 4.1 9 4-.9-4.2 4-6.6 7-3.8 1.1 0 3-1.2 3-1.2z" ></path>
</symbol>
</defs>
</svg>
