<?xml version="1.0" encoding="UTF-8"?>
<!-- This file is generated by npm run build:icons -->
<svg xmlns="http://www.w3.org/2000/svg" xmlns:xlink="http://www.w3.org/1999/xlink" width="0" height="0">
  <defs>
    <symbol viewBox="0 0 15 15" fill="none" id="arrow-left">
      <path fillRule="evenodd" clipRule="evenodd"
        d="M6.85355 3.14645C7.04882 3.34171 7.04882 3.65829 6.85355 3.85355L3.70711 7H12.5C12.7761 7 13 7.22386 13 7.5C13 7.77614 12.7761 8 12.5 8H3.70711L6.85355 11.1464C7.04882 11.3417 7.04882 11.6583 6.85355 11.8536C6.65829 12.0488 6.34171 12.0488 6.14645 11.8536L2.14645 7.85355C1.95118 7.65829 1.95118 7.34171 2.14645 7.14645L6.14645 3.14645C6.34171 2.95118 6.65829 2.95118 6.85355 3.14645Z"
        fill="currentColor"></path>
    </symbol>
    <symbol viewBox="0 0 15 15" fill="none" id="arrow-right">
      <path fillRule="evenodd" clipRule="evenodd"
        d="M8.14645 3.14645C8.34171 2.95118 8.65829 2.95118 8.85355 3.14645L12.8536 7.14645C13.0488 7.34171 13.0488 7.65829 12.8536 7.85355L8.85355 11.8536C8.65829 12.0488 8.34171 12.0488 8.14645 11.8536C7.95118 11.6583 7.95118 11.3417 8.14645 11.1464L11.2929 8H2.5C2.22386 8 2 7.77614 2 7.5C2 7.22386 2.22386 7 2.5 7H11.2929L8.14645 3.85355C7.95118 3.65829 7.95118 3.34171 8.14645 3.14645Z"
        fill="currentColor"></path>
    </symbol>
    <symbol viewBox="0 0 24 24" fill="none" stroke="currentColor" strokeWidth="2" strokeLinecap="round"
      strokeLinejoin="round" id="contact">
      <path d="M17 18a2 2 0 0 0-2-2H9a2 2 0 0 0-2 2"></path>
      <rect width="18" height="18" x="3" y="4" rx="2"></rect>
      <circle cx="12" cy="10" r="2"></circle>
      <line x1="8" x2="8" y1="2" y2="4"></line>
      <line x1="16" x2="16" y1="2" y2="4"></line>
    </symbol>
    <symbol viewBox="0 0 24 24" fill="none" stroke="currentColor" strokeWidth="2" strokeLinecap="round"
      strokeLinejoin="round" id="facebook">
      <path d="M18 2h-3a5 5 0 0 0-5 5v3H7v4h3v8h4v-8h3l1-4h-4V7a1 1 0 0 1 1-1h3z"></path>
    </symbol>
    <symbol viewBox="0 0 24 24" fill="none" stroke="currentColor" strokeWidth="2" strokeLinecap="round"
      strokeLinejoin="round" id="home">
      <path d="m3 9 9-7 9 7v11a2 2 0 0 1-2 2H5a2 2 0 0 1-2-2z"></path>
      <polyline points="9 22 9 12 15 12 15 22"></polyline>
    </symbol>
    <symbol viewBox="0 0 24 24" fill="none" stroke="currentColor" strokeWidth="2" strokeLinecap="round"
      strokeLinejoin="round" id="instagram">
      <rect width="20" height="20" x="2" y="2" rx="5" ry="5"></rect>
      <path d="M16 11.37A4 4 0 1 1 12.63 8 4 4 0 0 1 16 11.37z"></path>
      <line x1="17.5" x2="17.51" y1="6.5" y2="6.5"></line>
    </symbol>
    <symbol viewBox="0 0 24 24" fill="none" stroke="currentColor" strokeWidth="2" strokeLinecap="round"
      strokeLinejoin="round" id="log-in">
      <path d="M15 3h4a2 2 0 0 1 2 2v14a2 2 0 0 1-2 2h-4"></path>
      <polyline points="10 17 15 12 10 7"></polyline>
      <line x1="15" x2="3" y1="12" y2="12"></line>
    </symbol>
    <symbol viewBox="0 0 24 24" fill="none" stroke="currentColor" strokeWidth="2" strokeLinecap="round"
      strokeLinejoin="round" id="log-out">
      <path d="M9 21H5a2 2 0 0 1-2-2V5a2 2 0 0 1 2-2h4"></path>
      <polyline points="16 17 21 12 16 7"></polyline>
      <line x1="21" x2="9" y1="12" y2="12"></line>
    </symbol>
    <symbol viewBox="0 0 24 24" fill="none" stroke="currentColor" strokeWidth="2" strokeLinecap="round"
      strokeLinejoin="round" id="menu">
      <line x1="4" x2="20" y1="12" y2="12"></line>
      <line x1="4" x2="20" y1="6" y2="6"></line>
      <line x1="4" x2="20" y1="18" y2="18"></line>
    </symbol>
    <symbol viewBox="0 0 24 24" fill="none" stroke="currentColor" strokeWidth="2" strokeLinecap="round"
      strokeLinejoin="round" id="moon">
      <path d="M12 3a6 6 0 0 0 9 9 9 9 0 1 1-9-9Z"></path>
    </symbol>
    <symbol viewBox="0 0 24 24" fill="none" stroke="currentColor" strokeWidth="2" strokeLinecap="round"
      strokeLinejoin="round" id="search">
      <circle cx="11" cy="11" r="8"></circle>
      <path d="m21 21-4.3-4.3"></path>
    </symbol>
    <symbol viewBox="0 0 24 24" fill="none" stroke="currentColor" strokeWidth="2" strokeLinecap="round"
      strokeLinejoin="round" id="shopping-cart">
      <circle cx="8" cy="21" r="1"></circle>
      <circle cx="19" cy="21" r="1"></circle>
      <path d="M2.05 2.05h2l2.66 12.42a2 2 0 0 0 2 1.58h9.78a2 2 0 0 0 1.95-1.57l1.65-7.43H5.12"></path>
    </symbol>
    <symbol viewBox="0 0 24 24" strokeWidth="2" strokeLinecap="round" strokeLinejoin="round" id="star">
      <path
        d="M20.924 7.625a1.523 1.523 0 0 0-1.238-1.044l-5.051-.734-2.259-4.577a1.534 1.534 0 0 0-2.752 0L7.365 5.847l-5.051.734A1.535 1.535 0 0 0 1.463 9.2l3.656 3.563-.863 5.031a1.532 1.532 0 0 0 2.226 1.616L11 17.033l4.518 2.375a1.534 1.534 0 0 0 2.226-1.617l-.863-5.03L20.537 9.2a1.523 1.523 0 0 0 .387-1.575Z">
      </path>
    </symbol>
    <symbol viewBox="0 0 15 15" fill="none" id="sun">
      <path fillRule="evenodd" clipRule="evenodd"
        d="M7.5 0C7.77614 0 8 0.223858 8 0.5V2.5C8 2.77614 7.77614 3 7.5 3C7.22386 3 7 2.77614 7 2.5V0.5C7 0.223858 7.22386 0 7.5 0ZM2.1967 2.1967C2.39196 2.00144 2.70854 2.00144 2.90381 2.1967L4.31802 3.61091C4.51328 3.80617 4.51328 4.12276 4.31802 4.31802C4.12276 4.51328 3.80617 4.51328 3.61091 4.31802L2.1967 2.90381C2.00144 2.70854 2.00144 2.39196 2.1967 2.1967ZM0.5 7C0.223858 7 0 7.22386 0 7.5C0 7.77614 0.223858 8 0.5 8H2.5C2.77614 8 3 7.77614 3 7.5C3 7.22386 2.77614 7 2.5 7H0.5ZM2.1967 12.8033C2.00144 12.608 2.00144 12.2915 2.1967 12.0962L3.61091 10.682C3.80617 10.4867 4.12276 10.4867 4.31802 10.682C4.51328 10.8772 4.51328 11.1938 4.31802 11.3891L2.90381 12.8033C2.70854 12.9986 2.39196 12.9986 2.1967 12.8033ZM12.5 7C12.2239 7 12 7.22386 12 7.5C12 7.77614 12.2239 8 12.5 8H14.5C14.7761 8 15 7.77614 15 7.5C15 7.22386 14.7761 7 14.5 7H12.5ZM10.682 4.31802C10.4867 4.12276 10.4867 3.80617 10.682 3.61091L12.0962 2.1967C12.2915 2.00144 12.608 2.00144 12.8033 2.1967C12.9986 2.39196 12.9986 2.70854 12.8033 2.90381L11.3891 4.31802C11.1938 4.51328 10.8772 4.51328 10.682 4.31802ZM8 12.5C8 12.2239 7.77614 12 7.5 12C7.22386 12 7 12.2239 7 12.5V14.5C7 14.7761 7.22386 15 7.5 15C7.77614 15 8 14.7761 8 14.5V12.5ZM10.682 10.682C10.8772 10.4867 11.1938 10.4867 11.3891 10.682L12.8033 12.0962C12.9986 12.2915 12.9986 12.608 12.8033 12.8033C12.608 12.9986 12.2915 12.9986 12.0962 12.8033L10.682 11.3891C10.4867 11.1938 10.4867 10.8772 10.682 10.682ZM5.5 7.5C5.5 6.39543 6.39543 5.5 7.5 5.5C8.60457 5.5 9.5 6.39543 9.5 7.5C9.5 8.60457 8.60457 9.5 7.5 9.5C6.39543 9.5 5.5 8.60457 5.5 7.5ZM7.5 4.5C5.84315 4.5 4.5 5.84315 4.5 7.5C4.5 9.15685 5.84315 10.5 7.5 10.5C9.15685 10.5 10.5 9.15685 10.5 7.5C10.5 5.84315 9.15685 4.5 7.5 4.5Z"
        fill="currentColor"></path>
    </symbol>
    <symbol viewBox="0 0 24 24" fill="none" stroke="currentColor" strokeWidth="2" strokeLinecap="round"
      strokeLinejoin="round" id="twitter">
      <path
        d="M22 4s-.7 2.1-2 3.4c1.6 10-9.4 17.3-18 11.6 2.2.1 4.4-.6 6-2C3 15.5.5 9.6 3 5c2.2 2.6 5.6 4.1 9 4-.9-4.2 4-6.6 7-3.8 1.1 0 3-1.2 3-1.2z">
      </path>
    </symbol>
  </defs>
</svg>